<svg width="74" height="74" viewBox="0 0 74 74" fill="none" xmlns="http://www.w3.org/2000/svg">
<g id="delivery at work" clip-path="url(#clip0_299_2318)">
<path id="Vector" d="M62.293 21.3152C62.6161 21.3153 62.9355 21.2457 63.2294 21.1112C63.5233 20.9768 63.7847 20.7806 63.996 20.536C69.756 13.8731 70.6161 10.0243 70.6161 8.32312C70.6161 6.11569 69.7392 3.99867 68.1783 2.43779C66.6174 0.876898 64.5004 0 62.293 0C60.0855 0 57.9685 0.876898 56.4076 2.43779C54.8467 3.99867 53.9698 6.11569 53.9698 8.32312C53.9698 10.0243 54.8298 13.8731 60.59 20.536C60.8012 20.7806 61.0627 20.9768 61.3565 21.1112C61.6504 21.2457 61.9698 21.3152 62.293 21.3152ZM62.293 2.16811C63.9249 2.16995 65.4894 2.81903 66.6433 3.97294C67.7972 5.12686 68.4463 6.69138 68.4481 8.32327C68.4481 10.67 66.1706 14.7055 62.3558 19.1182C62.3481 19.1273 62.3385 19.1346 62.3276 19.1396C62.3167 19.1446 62.3049 19.1472 62.293 19.1472C62.281 19.1472 62.2692 19.1446 62.2583 19.1396C62.2475 19.1346 62.2378 19.1273 62.2301 19.1182C58.4153 14.7056 56.1378 10.67 56.1378 8.32312C56.1397 6.69126 56.7888 5.12678 57.9427 3.97289C59.0966 2.81901 60.6611 2.16995 62.293 2.16811ZM65.5449 8.38166C65.5406 7.73942 65.3463 7.11283 64.9864 6.58091C64.6264 6.04899 64.1171 5.63556 63.5225 5.39275C62.9279 5.14993 62.2747 5.08862 61.6454 5.21653C61.016 5.34445 60.4386 5.65586 59.9859 6.11151C59.5333 6.56715 59.2257 7.14662 59.102 7.77684C58.9783 8.40706 59.0439 9.05981 59.2907 9.65276C59.5374 10.2457 59.9543 10.7523 60.4886 11.1087C61.0229 11.4651 61.6507 11.6553 62.293 11.6553C63.158 11.6515 63.9862 11.3046 64.5959 10.6909C65.2055 10.0772 65.5468 9.24671 65.5449 8.38166ZM61.209 8.38166C61.2132 8.1682 61.2804 7.96074 61.4021 7.78531C61.5238 7.60988 61.6945 7.47428 61.893 7.39552C62.0914 7.31676 62.3087 7.29835 62.5176 7.3426C62.7264 7.38684 62.9176 7.49177 63.067 7.64422C63.2165 7.79668 63.3176 7.98987 63.3577 8.19957C63.3978 8.40927 63.3751 8.62615 63.2925 8.82299C63.2098 9.01984 63.0708 9.18789 62.893 9.30607C62.7152 9.42425 62.5065 9.48731 62.293 9.48732C62.0027 9.48412 61.7256 9.36591 61.5224 9.15863C61.3191 8.95135 61.2064 8.67192 61.209 8.38166ZM72.916 71.8322H71.832V31.8693C71.8313 31.1987 71.5645 30.5558 71.0904 30.0816C70.6162 29.6075 69.9733 29.3408 69.3027 29.34H54.9219V18.8615C54.9211 18.1909 54.6544 17.548 54.1802 17.0738C53.706 16.5997 53.0632 16.3329 52.3926 16.3322H50.8465V13.1227C50.8458 12.4521 50.579 11.8092 50.1049 11.3351C49.6307 10.8609 48.9878 10.5942 48.3172 10.5934H46.5106V7.38396C46.5098 6.71338 46.2431 6.07049 45.7689 5.59632C45.2948 5.12215 44.6519 4.85543 43.9813 4.85466H38.084V1.08413C38.084 0.796638 37.9698 0.520922 37.7665 0.317636C37.5632 0.114349 37.2875 0.000144283 37 0.000144283C36.7125 0.000144283 36.4368 0.114349 36.2335 0.317636C36.0302 0.520922 35.916 0.796638 35.916 1.08413V4.85466H30.0187C29.3481 4.85543 28.7052 5.12215 28.2311 5.59632C27.7569 6.07049 27.4902 6.71338 27.4894 7.38396V10.5934H25.6828C25.0122 10.5942 24.3693 10.8609 23.8951 11.3351C23.421 11.8092 23.1542 12.4521 23.1535 13.1227V16.3322H21.6074C20.9368 16.3329 20.294 16.5997 19.8198 17.0738C19.3456 17.548 19.0789 18.1909 19.0781 18.8615V29.4123H4.69727C4.02669 29.413 3.3838 29.6797 2.90963 30.1539C2.43546 30.6281 2.16873 31.271 2.16797 31.9415V71.8322H1.08398C0.796494 71.8322 0.520778 71.9464 0.317492 72.1497C0.114205 72.353 0 72.6287 0 72.9162C0 73.2037 0.114205 73.4794 0.317492 73.6827C0.520778 73.8859 0.796494 74.0001 1.08398 74.0001H72.916C73.2035 74.0001 73.4792 73.8859 73.6825 73.6827C73.8858 73.4794 74 73.2037 74 72.9162C74 72.6287 73.8858 72.353 73.6825 72.1497C73.4792 71.9464 73.2035 71.8322 72.916 71.8322ZM19.0781 55.3556H10.8398V51.0197H19.0781V55.3556ZM19.0781 42.3478H10.8398V38.0119H19.0781V42.3478ZM19.0781 35.8439H9.75586C9.46837 35.8439 9.19265 35.9581 8.98937 36.1614C8.78608 36.3647 8.67188 36.6404 8.67188 36.9279V43.4318C8.67188 43.7193 8.78608 43.995 8.98937 44.1983C9.19265 44.4016 9.46837 44.5158 9.75586 44.5158H19.0781V48.8517H9.75586C9.46837 48.8517 9.19265 48.9659 8.98937 49.1692C8.78608 49.3725 8.67188 49.6482 8.67188 49.9357V56.4396C8.67188 56.7271 8.78608 57.0028 8.98937 57.2061C9.19265 57.4094 9.46837 57.5236 9.75586 57.5236H19.0781V61.8595H9.75586C9.46837 61.8595 9.19265 61.9737 8.98937 62.177C8.78608 62.3803 8.67188 62.656 8.67188 62.9435C8.67188 63.231 8.78608 63.5067 8.98937 63.71C9.19265 63.9133 9.46837 64.0275 9.75586 64.0275H19.0781V71.8322H4.33594V31.9415C4.33605 31.8458 4.37416 31.7539 4.4419 31.6862C4.50963 31.6184 4.60147 31.5803 4.69727 31.5802H19.0781V35.8439ZM29.6574 7.38396C29.6575 7.28816 29.6956 7.19632 29.7633 7.12859C29.8311 7.06085 29.9229 7.02274 30.0187 7.02263H43.9813C44.0771 7.02274 44.1689 7.06085 44.2367 7.12859C44.3044 7.19632 44.3425 7.28816 44.3426 7.38396V10.5934H29.6574V7.38396ZM25.3214 13.1227C25.3216 13.0269 25.3597 12.9351 25.4274 12.8673C25.4951 12.7996 25.587 12.7615 25.6828 12.7614H48.3172C48.413 12.7615 48.5049 12.7996 48.5726 12.8673C48.6403 12.9351 48.6784 13.0269 48.6786 13.1227V16.3322H25.3214V13.1227ZM35.916 71.8322H27.75V62.6416H35.916V71.8322ZM46.25 71.8322H38.084V62.6416H46.25V71.8322ZM46.25 60.4736H27.75V57.5236H46.25V60.4736ZM52.7539 71.8322H48.418V56.4396C48.418 56.1521 48.3038 55.8764 48.1005 55.6731C47.8972 55.4698 47.6215 55.3556 47.334 55.3556H26.666C26.3785 55.3556 26.1028 55.4698 25.8995 55.6731C25.6962 55.8764 25.582 56.1521 25.582 56.4396V71.8322H21.2461V18.8615C21.2462 18.7657 21.2843 18.6738 21.3521 18.6061C21.4198 18.5384 21.5116 18.5003 21.6074 18.5001H52.3926C52.4884 18.5003 52.5802 18.5384 52.6479 18.6061C52.7157 18.6738 52.7538 18.7657 52.7539 18.8615V71.8322ZM54.9219 38.0119H63.1602V42.3478H54.9219V38.0119ZM54.9219 51.0197H63.1602V55.3556H54.9219V51.0197ZM69.6641 71.8322H54.9219V64.0275H64.2441C64.5316 64.0275 64.8074 63.9133 65.0106 63.71C65.2139 63.5067 65.3281 63.231 65.3281 62.9435C65.3281 62.656 65.2139 62.3803 65.0106 62.177C64.8074 61.9737 64.5316 61.8595 64.2441 61.8595H54.9219V57.5236H64.2441C64.5316 57.5236 64.8074 57.4094 65.0106 57.2061C65.2139 57.0028 65.3281 56.7271 65.3281 56.4396V49.9357C65.3281 49.6482 65.2139 49.3725 65.0106 49.1692C64.8074 48.9659 64.5316 48.8517 64.2441 48.8517H54.9219V44.5158H64.2441C64.5316 44.5158 64.8074 44.4016 65.0106 44.1983C65.2139 43.995 65.3281 43.7193 65.3281 43.4318V36.9279C65.3281 36.6404 65.2139 36.3647 65.0106 36.1614C64.8074 35.9581 64.5316 35.8439 64.2441 35.8439H54.9219V31.508H69.3027C69.3985 31.5081 69.4904 31.5462 69.5581 31.6139C69.6258 31.6817 69.6639 31.7735 69.6641 31.8693V71.8322ZM47.5946 22.8361H26.4054C26.1179 22.8361 25.8422 22.9503 25.6389 23.1536C25.4356 23.3569 25.3214 23.6326 25.3214 23.9201V30.424C25.3214 30.7115 25.4356 30.9872 25.6389 31.1905C25.8422 31.3938 26.1179 31.508 26.4054 31.508H47.5946C47.8821 31.508 48.1578 31.3938 48.3611 31.1905C48.5644 30.9872 48.6786 30.7115 48.6786 30.424V23.9201C48.6786 23.6326 48.5644 23.3569 48.3611 23.1536C48.1578 22.9503 47.8821 22.8361 47.5946 22.8361ZM46.5106 29.34H27.4894V25.004H46.5106V29.34ZM47.5946 48.8517H26.4054C26.1179 48.8517 25.8422 48.9659 25.6389 49.1692C25.4356 49.3725 25.3214 49.6482 25.3214 49.9357C25.3214 50.2232 25.4356 50.4989 25.6389 50.7022C25.8422 50.9055 26.1179 51.0197 26.4054 51.0197H47.5946C47.8821 51.0197 48.1578 50.9055 48.3611 50.7022C48.5644 50.4989 48.6786 50.2232 48.6786 49.9357C48.6786 49.6482 48.5644 49.3725 48.3611 49.1692C48.1578 48.9659 47.8821 48.8517 47.5946 48.8517ZM47.5946 35.8439H26.4054C26.1179 35.8439 25.8422 35.9581 25.6389 36.1614C25.4356 36.3647 25.3214 36.6404 25.3214 36.9279V43.4318C25.3214 43.7193 25.4356 43.995 25.6389 44.1983C25.8422 44.4016 26.1179 44.5158 26.4054 44.5158H47.5946C47.8821 44.5158 48.1578 44.4016 48.3611 44.1983C48.5644 43.995 48.6786 43.7193 48.6786 43.4318V36.9279C48.6786 36.6404 48.5644 36.3647 48.3611 36.1614C48.1578 35.9581 47.8821 35.8439 47.5946 35.8439ZM46.5106 42.3478H27.4894V38.0119H46.5106V42.3478Z" fill="#0B0B0B"/>
</g>
<defs>
<clipPath id="clip0_299_2318">
<rect width="74" height="74" fill="white"/>
</clipPath>
</defs>
</svg>
