<svg width="889" height="557" viewBox="0 0 889 557" fill="none" xmlns="http://www.w3.org/2000/svg">
<path d="M225.205 405.407H198.501V459H144.908V405.407H11.0175L40.8954 191.219H94.4889L71.1468 352H144.908V218.109H198.501V352H225.205V405.407Z" fill="#C4181D"/>
<path d="M872.205 405.407H845.501V459H791.908V405.407H658.017L687.895 191.219H741.489L718.147 352H791.908V218.109H845.501V352H872.205V405.407Z" fill="#C4181D"/>
<path fill-rule="evenodd" clip-rule="evenodd" d="M552.258 163.509C544.849 161.663 540.929 157.566 541.755 150.838C543.469 136.879 558.372 135.834 595.589 140.325L605.603 141.554C642.802 146.194 657.016 150.821 655.302 164.78C654.476 171.507 649.674 174.534 642.038 174.533C637.053 174.54 634.026 174.017 618.746 170.917C609.729 169.082 603.843 168.035 597.37 167.24C590.898 166.446 584.926 166.037 575.74 165.636C560.164 164.948 557.095 164.716 552.258 163.509ZM594.732 147.423C563.357 143.636 549.725 144.598 548.852 151.709C548.537 154.271 549.718 155.504 553.995 156.577C558.133 157.611 561.196 157.835 576.055 158.493C585.414 158.9 591.535 159.32 598.242 160.144C604.941 160.966 610.983 162.039 620.169 163.909C634.739 166.865 637.772 167.389 642.037 167.387C646.439 167.38 647.891 166.47 648.205 163.908C649.079 156.797 636.077 152.565 604.717 148.649L599.501 148.009L594.732 147.423ZM649.031 102.389C658.162 101.479 663.642 97.0301 664.699 88.4218C667.096 68.9059 643.859 52.6323 611.945 48.7138C580.031 44.7952 553.548 54.964 551.153 74.4729C550.096 83.0812 554.338 88.7238 562.975 91.8302C568.985 93.9872 574.559 94.7653 591.487 96.3539C596.302 96.7819 601.111 97.2834 605.911 97.8585C610.098 98.3726 613.737 98.8914 620.271 99.8882C637.081 102.442 642.677 103.035 649.03 102.396M611.075 55.8034C639.589 59.3045 659.369 73.1654 657.604 87.5433C656.991 92.5323 654.359 94.6656 648.312 95.2774C642.827 95.8286 637.408 95.2569 621.348 92.8167C616.504 92.0574 611.648 91.3724 606.782 90.7618C602.51 90.2372 598.804 89.8542 592.152 89.2319C575.979 87.7143 570.582 86.9652 565.394 85.0964C559.668 83.039 557.637 80.3332 558.25 75.3442C560.015 60.9663 582.56 52.3022 611.075 55.8034Z" fill="black"/>
<path d="M550.735 107.337C549.863 107.711 548.879 107.724 547.998 107.373C547.117 107.022 546.412 106.335 546.037 105.464C545.663 104.592 545.65 103.608 546.001 102.727C546.353 101.846 547.039 101.141 547.911 100.766C552.709 98.6681 557.984 97.9023 563.181 98.5495C566.63 98.973 568.547 99.7918 571.535 101.679L571.615 101.732C573.848 103.137 574.909 103.591 577.258 103.88C579.579 104.165 580.602 103.988 582.85 103.162L582.94 103.13C586.108 101.97 588.133 101.613 591.61 102.04C595.138 102.473 597.014 103.323 599.809 105.258C601.747 106.606 602.608 106.992 604.758 107.256C606.908 107.52 607.83 107.345 609.998 106.531L610.029 106.513C613.208 105.319 615.243 104.942 618.777 105.376C622.268 105.805 624.154 106.641 627.002 108.554L627.035 108.58C629.058 109.938 629.987 110.354 632.258 110.633C634.529 110.912 635.559 110.736 637.88 109.904L637.925 109.888C641.18 108.724 643.211 108.376 646.695 108.804C651.876 109.44 656.779 111.396 661.38 114.641C662.099 115.208 662.573 116.028 662.704 116.934C662.836 117.84 662.615 118.762 662.088 119.51C661.56 120.257 660.766 120.774 659.868 120.954C658.97 121.134 658.038 120.962 657.263 120.475C653.602 117.907 649.805 116.389 645.824 115.9C643.624 115.63 642.623 115.803 640.332 116.624L640.28 116.639C637.002 117.814 634.942 118.166 631.386 117.73C627.831 117.293 625.925 116.447 623.05 114.516L623.01 114.49C621.013 113.149 620.105 112.743 617.905 112.473C615.705 112.202 614.748 112.373 612.564 113.207L612.526 113.217C609.375 114.415 607.364 114.78 603.887 114.353C600.409 113.926 598.546 113.085 595.764 111.159L595.737 111.141C593.813 109.802 592.939 109.407 590.739 109.137C588.56 108.869 587.596 109.039 585.401 109.843L585.311 109.875C582.081 111.063 579.992 111.419 576.387 110.977C572.81 110.537 570.846 109.698 567.797 107.775L567.717 107.722C565.544 106.353 564.531 105.919 562.31 105.646C558.336 105.158 554.506 105.718 550.735 107.337ZM552.031 125.995C551.09 125.88 550.233 125.395 549.65 124.648C549.066 123.901 548.803 122.952 548.918 122.011C549.034 121.07 549.519 120.214 550.266 119.63C551.013 119.046 551.961 118.783 552.903 118.899L652.256 131.098C653.197 131.213 654.054 131.698 654.638 132.445C655.222 133.192 655.485 134.141 655.369 135.082C655.254 136.023 654.769 136.879 654.022 137.463C653.275 138.047 652.326 138.31 651.385 138.194L552.031 125.995ZM580.784 73.697C580.645 74.8263 580.064 75.8543 579.167 76.5548C578.271 77.2553 577.132 77.5709 576.003 77.4322C574.874 77.2936 573.846 76.712 573.145 75.8154C572.445 74.9188 572.129 73.7807 572.268 72.6514C572.407 71.5221 572.988 70.4941 573.885 69.7937C574.781 69.0932 575.92 68.7775 577.049 68.9162C578.178 69.0549 579.206 69.6365 579.907 70.533C580.607 71.4296 580.923 72.5677 580.784 73.697ZM599.397 68.7787C599.259 69.908 598.677 70.936 597.78 71.6365C596.884 72.337 595.746 72.6526 594.616 72.514C593.487 72.3753 592.459 71.7937 591.759 70.8971C591.058 70.0005 590.742 68.8624 590.881 67.7331C591.02 66.6038 591.601 65.5759 592.498 64.8754C593.395 64.1749 594.533 63.8592 595.662 63.9979C596.791 64.1366 597.819 64.7182 598.52 65.6147C599.22 66.5113 599.536 67.6495 599.397 68.7787ZM612.284 81.1665C612.145 82.2958 611.563 83.3238 610.667 84.0243C609.77 84.7248 608.632 85.0404 607.503 84.9017C606.373 84.7631 605.345 84.1815 604.645 83.2849C603.944 82.3883 603.629 81.2502 603.767 80.1209C603.906 78.9916 604.488 77.9636 605.384 77.2632C606.281 76.5627 607.419 76.247 608.548 76.3857C609.678 76.5244 610.706 77.1059 611.406 78.0025C612.107 78.8991 612.422 80.0372 612.284 81.1665ZM627.784 72.2642C627.645 73.3935 627.064 74.4215 626.167 75.122C625.271 75.8224 624.132 76.1381 623.003 75.9994C621.874 75.8608 620.846 75.2792 620.145 74.3826C619.445 73.486 619.129 72.3479 619.268 71.2186C619.407 70.0893 619.988 69.0613 620.885 68.3608C621.781 67.6603 622.919 67.3447 624.049 67.4834C625.178 67.622 626.206 68.2036 626.907 69.1002C627.607 69.9968 627.923 71.1349 627.784 72.2642ZM644.654 81.5393C644.516 82.6686 643.934 83.6966 643.038 84.3971C642.141 85.0976 641.003 85.4132 639.874 85.2745C638.744 85.1359 637.716 84.5543 637.016 83.6577C636.315 82.7611 636 81.623 636.138 80.4937C636.277 79.3644 636.859 78.3364 637.755 77.6359C638.652 76.9355 639.79 76.6198 640.919 76.7585C642.048 76.8972 643.076 77.4787 643.777 78.3753C644.477 79.2719 644.793 80.41 644.654 81.5393Z" fill="black"/>
<path d="M450.016 130.465C445.18 135.301 448.28 146.585 454.356 146.585C457.332 146.585 461.176 141.377 461.176 137.285C461.176 134.805 460.184 132.449 458.324 130.713C454.728 127.365 453.24 127.241 450.016 130.465ZM457.456 134.185C457.456 135.425 456.836 136.913 456.216 137.285C454.604 138.277 453.24 134.805 454.232 132.201C455.224 129.721 457.456 131.085 457.456 134.185Z" fill="black"/>
<path d="M452.946 330.956C452.202 333.56 451.582 337.776 451.582 340.38C451.582 342.984 450.714 346.704 449.722 348.688C447.242 353.4 449.102 354.268 454.558 350.92C458.898 348.068 460.51 343.604 457.782 341.868C457.162 341.496 456.542 338.148 456.542 334.428C456.542 326.368 454.682 324.632 452.946 330.956Z" fill="black"/>
<path d="M452.7 2.72592C445.136 6.32193 435.96 15.9939 431.868 24.4259C425.916 36.8259 423.808 39.1819 415.624 43.1499C403.968 48.8539 388.716 53.0699 374.332 54.4339C355.98 56.1699 349.532 60.2619 341.596 75.5139C339.116 80.226 338.744 82.9539 338.62 93.4939C338.62 104.034 338.992 106.762 341.596 111.846C348.044 124.99 355.856 129.33 373.092 129.578C384.376 129.826 385.368 129.95 387.6 132.926C389.956 135.902 389.956 136.274 388.096 140.738C384.376 149.666 387.228 164.298 394.172 171.862C396.528 174.59 396.528 174.714 394.296 175.334C380.036 179.798 356.352 197.654 358.212 202.49C358.708 203.606 358.336 202.738 361.436 204.226C358.088 205.094 350.772 209.31 345.316 211.914C317.788 229.522 307.124 242.418 291 276.022C287.652 288.918 282 305.038 282 328.474C282.124 351.042 283.024 356.096 286 368C289.968 383.5 299.582 408.491 312.14 422C360.748 474.285 418.884 473 433.64 473C448.396 473 487.292 471 513.5 458.5C539.708 446 560 419.5 568.5 402C573.885 390.914 576.891 378.349 579.5 355.754C581.608 337.499 582.032 321.158 577.692 298.094C573.538 276.022 574.656 277.212 576.64 272.5C578.996 266.548 585.504 246.51 586.62 239.442C587.364 234.482 588.108 233.738 596.292 228.282C601.252 225.182 607.576 220.718 610.552 218.486L616.008 214.394H654.324H655V199.5V189.602C655 189.05 654.552 188.602 654 188.602H607.452L522.14 188.974L521.768 198.894C521.148 215.262 520.28 214.394 537.64 214.394H552.52L555.62 220.594C560.084 229.274 559.712 231.754 553.016 237.954L550.14 240.93L544.64 235.474C528.272 222.206 519.908 217.742 499.448 209.434C495.976 208.07 493.854 208.116 493.64 207C493.02 203.776 493.868 203.358 497.464 198.646C499.82 195.546 503.044 190.834 504.532 188.23C507.012 183.89 507.756 183.394 512.468 183.394C522.016 183.394 527.72 175.582 527.72 162.562C527.72 156.486 525.86 155.742 521.768 160.454C520.28 162.19 517.8 163.554 516.188 163.554C513.336 163.554 513.336 163.43 514.452 156.114C515.32 150.782 515.32 147.682 514.204 145.45C513.46 143.714 512.84 140.49 512.84 138.382C512.84 130.818 509.12 119.534 502.052 105.646L494.984 91.8819L503.292 83.0779C512.592 73.1579 515.692 67.7019 518.544 56.6659C523.504 37.5699 511.6 15.2499 491.016 4.83392C483.576 0.989929 481.468 0.493958 470.804 0.121948C460.264 -0.250061 458.156 0.121918 452.7 2.72592ZM485.808 10.0419C494.736 14.1339 504.656 23.4339 508.872 31.4939C513.46 40.1739 513.584 54.6819 509.244 63.6099C506.268 69.6859 494.984 84.1939 493.248 84.1939C492.752 84.0699 490.892 81.9619 489.156 79.3579C486.676 75.886 484.196 74.0259 479.856 72.5379C470.308 69.3139 450.84 70.3059 450.84 74.0259C450.84 74.6459 455.428 75.5139 461.008 75.8859C475.144 77.0019 481.344 80.226 485.932 88.9059C487.916 92.502 489.28 95.726 489.032 95.9739C488.784 96.2219 483.948 95.8499 478.244 95.1059C450.964 91.6339 420.708 102.298 400.248 122.634C396.776 126.23 393.304 128.71 392.56 128.214C391.94 127.842 390.452 125.858 389.46 123.75C387.724 120.526 387.724 119.782 389.584 116.186C391.816 111.722 409.796 93.3699 414.88 90.1459C418.972 87.5419 417.36 86.054 412.152 87.7899C400.496 91.6339 380.16 112.342 380.16 120.278C380.16 123.874 380.036 123.874 372.844 123.874C363.42 123.874 358.212 122.014 352.632 116.682C336.884 101.678 344.324 67.0819 364.288 62.1219C367.512 61.2539 372.224 60.6339 374.828 60.6339C377.432 60.6339 385.616 59.2699 393.18 57.5339C400.62 55.7979 407.068 54.4339 407.316 54.4339C407.688 54.4339 406.076 56.4179 403.72 58.7739C400 62.6179 399.876 63.1139 401.984 63.1139C409.548 63.1139 427.528 45.3819 435.836 29.7579C441.912 18.7219 450.22 9.91791 457.288 7.56192C464.356 5.20593 477.872 6.32193 485.808 10.0419ZM485.932 105.15C486.8 106.018 486.552 107.258 485.188 108.746C482.088 112.094 482.46 114.45 485.932 113.334C492.628 111.226 495.232 111.226 497.588 113.582C499.944 115.938 506.144 133.422 505.028 134.538C504.656 134.91 503.168 134.662 501.804 133.794C499.572 132.678 499.324 131.686 499.944 127.47C501.308 119.286 494.86 114.574 489.9 120.154C487.544 122.634 487.544 122.634 483.452 118.666C480.476 115.814 479.36 115.318 479.36 116.682C479.36 121.146 496.348 139.002 504.408 143.218C510.856 146.566 511.476 151.278 506.268 156.982C503.168 160.454 496.72 160.702 490.024 157.974C487.048 156.734 482.212 156.114 475.888 156.238C465.472 156.61 462.496 155.494 456.048 149.542C452.824 146.442 451.584 145.946 449.848 146.938C446.996 148.798 446.624 154.874 448.856 162.934C452.328 174.714 459.396 180.666 470.68 181.286C475.392 181.534 477.748 182.526 480.228 184.882C484.072 188.602 489.776 190.462 491.016 188.478C491.512 187.858 490.52 186.618 489.032 185.75C486.18 184.262 484.32 182.278 484.32 180.666C484.32 180.294 486.304 178.682 488.66 177.194L493 174.466L496.348 178.558C498.332 180.79 499.572 183.518 499.448 184.51C498.704 187.61 489.528 199.266 486.056 201.498C483.576 203.234 480.972 203.482 473.036 202.862C453.072 201.498 438.44 190.214 431.62 170.994C430.504 168.018 429.016 165.166 428.272 164.67C426.288 163.43 421.204 165.538 415.624 170.002C411.16 173.598 410.664 173.722 406.2 172.358C403.596 171.614 400 169.258 398.264 167.15C391.94 159.71 390.824 144.954 396.156 139.622L398.76 137.018L404.34 139.746C407.44 141.234 412.4 144.706 415.376 147.434C422.196 153.758 425.172 153.882 427.652 147.682C430.752 139.994 431.248 133.174 429.636 123.254C428.644 116.806 428.52 113.458 429.388 112.59C430.876 111.102 447.244 105.026 447.864 105.646C448.112 105.894 447.244 108.25 445.88 110.854C443.4 115.566 442.656 120.154 444.144 120.154C444.64 120.154 446.872 118.418 449.352 116.31C453.444 112.714 454.188 112.466 460.512 113.21C468.82 114.202 468.82 112.218 460.14 107.754C454.436 104.902 454.312 104.654 457.164 103.786C461.256 102.546 484.444 103.662 485.932 105.15ZM421.824 121.642C422.816 126.602 422.94 139.87 421.824 140.862C421.328 141.358 419.468 140.49 417.608 139.002C415.748 137.514 412.152 135.158 409.672 133.794C407.068 132.43 404.96 130.818 404.96 130.198C404.96 128.958 418.6 117.674 420.088 117.674C420.46 117.674 421.328 119.534 421.824 121.642ZM497.712 123.006C497.96 124.246 497.34 125.114 496.224 125.114C494.984 125.114 494.24 123.998 494.24 122.51C494.24 119.534 497.092 119.906 497.712 123.006ZM462.62 163.058C466.092 164.422 469.316 164.67 475.516 164.05C485.312 163.182 490.52 164.794 487.916 168.018C483.08 173.846 468.696 175.582 462.744 170.87C459.272 168.142 455.056 161.074 456.916 161.074C457.412 161.074 460.016 161.942 462.62 163.058ZM511.972 169.382C516.56 169.754 520.28 170.622 520.28 171.366C520.28 174.59 516.064 177.194 510.856 177.194C506.516 177.194 505.028 176.574 502.424 173.35C498.704 169.01 498.208 166.654 501.432 167.894C502.548 168.39 507.26 169.134 511.972 169.382ZM427.528 180.666C431.744 189.594 438.316 197.406 445.26 201.498C448.236 203.234 451.088 205.714 451.46 206.954C451.832 208.194 455.428 212.286 459.396 216.006C466.588 222.578 470.556 224.314 478.244 224.314C482.832 224.314 483.948 222.33 479.608 221.462C476.26 220.718 466.96 213.774 466.96 211.914C466.96 211.418 471.796 211.046 477.748 211.17L488.66 211.418L489.652 216.998C491.636 227.786 488.164 254.446 484.196 258.414C481.964 260.646 466.836 259.53 459.148 256.678C443.896 250.726 428.52 234.978 417.36 213.774C412.4 204.474 410.788 195.67 413.64 193.934C414.384 193.562 414.88 194.554 414.88 196.29C414.88 199.886 417.236 201.746 418.724 199.39C420.336 196.662 420.088 191.082 417.98 186.99C416.492 184.138 416.368 182.774 417.484 180.542C419.22 177.318 422.444 173.474 423.436 173.474C423.808 173.474 425.668 176.698 427.528 180.666ZM407.192 180.79C408.432 181.534 407.44 182.526 403.472 184.634C393.18 189.842 390.576 194.802 400 191.206C405.828 188.85 406.696 189.346 405.084 193.686C403.348 198.026 391.692 203.606 382.516 204.226C375.572 204.722 366.52 202.738 366.52 200.754C366.52 197.902 384.748 185.502 393.924 182.154C401.24 179.55 404.712 179.178 407.192 180.79ZM652 198.5V209.434H607.08H526.48V201.622C526.48 197.282 526.852 193.314 527.348 192.942C527.72 192.446 564.052 192.074 607.948 192.074H650C651.105 192.074 652 192.969 652 194.074V198.5ZM400 213.03C400 215.386 372.968 238.698 368.256 240.31C354.864 245.146 337.752 258.91 329.94 271.434C319.772 287.43 315.308 312.23 317.788 337.898C320.144 361.706 327.212 377.33 343.084 393.326C350.648 400.89 351.64 402.502 351.64 406.594C351.64 410.81 352.012 411.306 355.484 412.05C357.592 412.422 363.42 412.794 368.256 412.794C373.216 412.794 380.284 413.662 384.128 414.654C395.04 417.506 410.416 418.994 427.9 418.994C482.46 418.994 515.816 402.874 531.44 369.022C535.656 359.97 540.12 339.51 540.12 329.59V322.522L545.576 321.158C549.296 320.29 552.148 318.554 554.256 315.826C559.216 309.502 560.208 312.478 559.464 331.202C558.348 354.638 555.248 367.782 546.94 384.15C537.888 402.006 523.752 416.995 506.02 426.5C496.691 431.501 476.304 439.419 467.5 440.5C447 443.018 414.88 442.588 388.716 438C348.416 431.056 321.136 409.694 307.124 379.066C295.344 353.398 293.608 311.982 303.032 280.734C304.52 275.898 310.596 263.498 314.688 257.174C326.592 238.326 349.284 223.074 374.58 216.626C393.924 211.79 400 210.922 400 213.03ZM412.896 221.586C420.584 236.714 437.572 254.57 450.84 261.266C455.8 263.622 462.62 265.854 468.324 266.722L477.748 268.21L482.212 287.554C484.692 298.094 487.668 311.114 488.66 316.322C491.016 327.482 493.744 329.714 492.504 319.422C492.132 315.95 490.272 302.806 488.536 290.282C486.056 273.294 485.56 267.218 486.676 266.102C489.156 263.622 490.396 266.846 494.24 286.81C499.076 311.734 502.796 339.882 503.788 358.978L504.532 373.982L500.936 377.206C495.852 381.67 489.404 385.886 481.716 389.854C474.4 393.45 456.172 396.302 448.732 394.814C444.64 394.07 444.64 394.07 444.64 386.878C444.64 382.91 445.012 376.338 445.384 372.246L446.128 364.806L458.528 363.442C471.424 361.83 477.252 359.846 479.36 355.754C480.104 354.39 481.344 347.198 482.088 339.634C484.444 316.446 481.468 311.734 462.496 307.27C456.048 305.782 450.84 304.17 450.84 303.674C450.84 303.178 444.144 302.31 435.96 301.814C413.764 300.574 414.632 301.07 412.772 289.29C410.788 276.642 408.432 268.706 406.448 267.962C405.332 267.59 405.084 268.334 405.456 270.442C405.828 271.93 406.324 278.874 406.448 285.694L406.82 298.094L403.1 297.97C401.116 297.846 394.544 297.35 388.716 296.854C380.16 296.11 377.556 296.234 375.076 297.846C373.464 298.838 368.008 299.954 363.048 300.326L353.872 300.822L354.74 293.382C355.236 289.166 356.972 279.866 358.584 272.674L361.436 259.654L384.128 237.582C396.528 225.554 407.44 215.634 408.308 215.634C409.176 215.634 411.284 218.238 412.896 221.586ZM600.88 216.874C600.88 217.494 597.408 220.222 593.192 222.702C582.156 229.522 581.66 230.266 579.924 240.93C576.08 264.986 561.324 299.582 550.412 310.618C548.428 312.602 548.056 312.478 544.212 308.014C537.268 299.954 534.788 291.398 534.664 276.022L534.54 262.63L539.004 258.662C563.68 236.714 564.92 235.474 564.92 231.01C564.92 228.654 564.052 224.686 563.06 222.33C562.068 219.85 561.572 217.37 561.944 216.75C562.812 215.138 600.88 215.262 600.88 216.874ZM512.592 229.522C517.552 232.25 525.364 238.078 529.952 242.418L538.26 250.354L535.16 253.33C533.424 254.942 529.208 257.174 525.612 258.166L519.288 259.902L516.932 254.818C513.832 247.874 506.516 237.086 501.184 231.382C491.884 221.586 496.844 220.842 512.592 229.522ZM504.16 242.542C507.012 246.51 510.856 252.834 512.468 256.554C515.568 263.25 515.568 263.498 513.46 268.954C510.608 276.766 509.74 293.134 511.6 305.658C512.964 315.33 513.46 316.446 517.304 319.546C521.024 322.522 521.52 323.638 521.52 328.474C521.396 339.758 515.072 362.822 511.6 365.054C510.98 365.426 510.236 362.202 509.864 357.986C509.492 353.646 508.5 343.478 507.756 335.294C506.888 327.11 506.144 318.43 506.02 316.074C505.896 313.718 505.4 310.866 505.028 309.874C504.656 308.882 503.168 301.07 501.68 292.514C500.192 283.958 497.588 271.682 496.1 265.11C493.496 254.446 493.372 252.214 494.612 244.278C495.356 239.442 496.596 235.474 497.464 235.474C498.208 235.474 501.184 238.698 504.16 242.542ZM526.728 277.882C527.348 293.134 530.324 302.93 536.896 311.486L540.12 315.702L534.292 316.57C524.372 317.81 521.272 316.322 518.792 309.13C516.064 301.442 515.816 282.842 518.296 274.658C520.032 269.078 523.256 263.994 525.24 263.994C525.736 263.994 526.48 270.318 526.728 277.882ZM350.4 281.602C350.4 283.214 349.532 288.918 348.54 294.374C347.548 299.83 346.804 304.914 346.68 305.658C346.68 306.402 345.316 307.642 343.704 308.51C342.092 309.378 339.984 311.486 339.116 313.098C338.248 314.71 337.008 316.074 336.388 316.074C333.536 316.074 339.984 292.638 345.316 284.206C348.912 278.254 350.4 277.51 350.4 281.602ZM406.82 306.154C416.368 306.898 429.388 307.146 435.712 306.65L447.244 305.782L446.624 308.758C442.036 328.846 437.448 369.518 436.828 395.434L436.58 407.214L425.42 407.09C419.344 406.966 401.86 406.47 386.732 405.974L359.08 405.106V386.258C359.204 364.682 361.56 343.106 365.28 329.838C368.504 318.554 370.364 314.834 376.068 308.51C380.16 304.046 381.028 303.55 384.996 304.17C387.476 304.542 397.272 305.41 406.82 306.154ZM364.04 308.634C364.04 309.378 362.924 312.106 361.684 314.586C360.32 317.19 358.088 323.762 356.476 329.094C354.988 334.55 353.5 339.262 353.252 339.51C352.508 340.502 349.036 336.658 346.06 331.326C341.844 323.762 341.968 318.678 346.556 314.338C351.268 309.75 364.04 305.658 364.04 308.634ZM466.216 313.594C477.624 317.19 478.864 319.67 477.128 335.79C475.144 355.01 474.4 355.754 456.296 355.754H447.12V350.298C447.12 344.47 450.468 317.066 451.584 313.222C452.452 310.494 456.172 310.494 466.216 313.594ZM339.116 331.822C339.984 333.682 343.456 338.642 346.928 343.106L353.252 350.918L352.384 361.086C351.888 366.666 351.268 371.502 350.896 371.874C349.408 373.238 344.076 364.806 340.604 355.754C335.148 341.618 333.784 320.166 339.116 331.822Z" fill="black"/>
</svg>
