<svg width="347" height="93" viewBox="0 0 347 93" fill="none" xmlns="http://www.w3.org/2000/svg">
<path d="M112.677 49.5141L109.241 44.4325L92.5195 44.4936C88.6153 44.5071 85.6534 43.6116 83.6267 41.8069C81.6001 40.0022 80.5766 37.2206 80.5631 33.4755L80.5021 16.9689C80.4953 14.7707 80.8206 12.9592 81.4917 11.5481C82.1627 10.1369 83.037 9.00388 84.1283 8.14904C85.2128 7.29419 86.4803 6.70394 87.9172 6.3715C89.3541 6.03906 90.8385 5.86945 92.3704 5.86267L119.333 5.76089C123.143 5.74733 126.084 6.64288 128.158 8.44756C130.232 10.2522 131.276 13.0339 131.29 16.7789L131.351 33.2856C131.357 35.3684 131.039 37.1188 130.395 38.53C129.751 39.9412 128.897 41.0877 127.833 41.9562C126.769 42.8314 125.501 43.4487 124.044 43.8219C122.58 44.195 121.062 44.385 119.482 44.3918L116.276 44.4054L119.638 49.4869L112.67 49.5141H112.677ZM111.864 37.933C112.698 37.5055 113.22 36.8746 113.423 36.0469C113.626 35.2192 113.728 34.2218 113.728 33.0617L113.667 16.6704C113.667 15.7477 113.592 14.981 113.45 14.384C113.308 13.787 113.064 13.3256 112.711 12.9932C112.365 12.6675 111.884 12.4436 111.281 12.3351C110.678 12.2197 109.932 12.1655 109.051 12.1722L102.714 12.1926C101.785 12.1926 101.019 12.2672 100.416 12.4029C99.8126 12.5386 99.3381 12.7761 98.9925 13.1017C98.6468 13.4342 98.4163 13.8887 98.3011 14.4654C98.1859 15.0421 98.1317 15.7952 98.1384 16.7246L98.2062 33.5841C98.2062 34.6289 98.3147 35.4634 98.5316 36.1012C98.7417 36.7389 99.0602 37.207 99.4805 37.5191C99.9007 37.8244 100.396 38.0279 100.978 38.1229C101.561 38.2179 102.219 38.2654 102.964 38.2586C103.425 38.2586 103.846 38.2383 104.218 38.1976C104.591 38.1569 104.842 38.1161 104.984 38.0822L101.412 32.6478L108.238 32.6207L111.884 37.933H111.864Z" fill="white"/>
<path d="M156.904 11.3443L156.985 33.3532C156.985 34.2826 157.046 35.0357 157.168 35.6124C157.283 36.1891 157.521 36.6437 157.873 36.9693C158.226 37.295 158.7 37.5256 159.303 37.6613C159.906 37.797 160.672 37.8581 161.601 37.8581L166.684 37.8377C167.478 37.8377 168.162 37.797 168.738 37.7156C169.321 37.6342 169.796 37.4442 170.162 37.1321C170.534 36.82 170.799 36.3655 170.961 35.7684C171.124 35.1714 171.199 34.3505 171.199 33.3057L171.117 11.2968C171.111 8.94256 170.453 7.02933 169.145 5.57067L189.974 5.48926C188.679 7.03612 188.035 8.95613 188.042 11.2289L188.123 33.0682C188.137 36.3926 187.181 39.0657 185.263 41.1011C183.345 43.1364 180.362 44.1609 176.323 44.1744L151.312 44.2694C147.367 44.283 144.385 43.2721 142.385 41.23C140.379 39.1878 139.369 36.5283 139.362 33.2514L139.281 11.4121C139.274 9.13253 138.617 7.22608 137.309 5.686L158.836 5.60459C157.541 7.15146 156.897 9.07146 156.904 11.3443Z" fill="white"/>
<path d="M217.059 21.1416L231.272 21.0873C234.011 21.0738 236.22 20.782 237.888 20.1918L237.915 28.3603C236.796 27.6683 235.027 27.329 232.614 27.3358L217.079 27.3969L217.12 37.6483L234.329 37.5804C234.885 37.5804 235.386 37.5601 235.827 37.5194C236.268 37.4787 236.722 37.3972 237.183 37.2819C237.644 37.1666 238.165 37.0173 238.748 36.8409C239.331 36.6645 240.057 36.461 240.938 36.2235L239.433 43.9307L197.565 44.0867C198.86 42.5399 199.504 40.6267 199.497 38.3471L199.395 11.182C199.388 8.90237 198.731 6.99592 197.423 5.45585L238.315 5.2998L239.663 12.5931C238.172 11.9825 235.942 11.6772 232.974 11.6908L217.018 11.7519L217.052 21.1348L217.059 21.1416Z" fill="white"/>
<path d="M264.634 20.957L278.847 20.9027C281.586 20.8892 283.795 20.5975 285.463 20.0072L285.49 28.1757C284.371 27.4837 282.602 27.1445 280.189 27.1513L264.654 27.2123L264.695 37.4637L281.904 37.3958C282.46 37.3958 282.962 37.3755 283.402 37.3348C283.843 37.2941 284.297 37.2127 284.758 37.0973C285.219 36.982 285.741 36.8327 286.324 36.6563C286.906 36.4799 287.632 36.2764 288.513 36.0389L287.008 43.7461L245.14 43.9022C246.435 42.3553 247.079 40.4421 247.065 38.1625L246.964 10.9974C246.957 8.7178 246.299 6.81135 244.991 5.27127L285.883 5.11523L287.232 12.4086C285.741 11.798 283.511 11.4927 280.542 11.5062L264.593 11.5673L264.627 20.9502L264.634 20.957Z" fill="white"/>
<path d="M334.908 35.7485L334.813 10.6662C334.807 8.38664 334.149 6.48021 332.841 4.94013L344.404 4.89941C343.11 6.37165 342.466 8.28488 342.472 10.6391L342.594 43.5371L320.091 43.6253L301.303 12.3013L301.398 37.9603C301.404 40.2398 302.062 42.1463 303.37 43.6864L291.807 43.7339C293.101 42.187 293.745 40.267 293.732 37.9942L293.63 10.8291C293.623 8.54947 292.966 6.64303 291.658 5.10295L316.872 5.00797L334.895 35.7553L334.908 35.7485Z" fill="white"/>
<path d="M121.36 79.1005L121.38 84.3177C121.394 87.2283 120.54 89.2636 118.825 90.4238C117.11 91.5839 114.63 92.1674 111.383 92.181L80.7937 92.2963C81.8443 90.7834 82.3662 88.9109 82.3594 86.6788L82.2578 60.0835C82.251 57.8514 81.7155 55.9857 80.6514 54.4728L111.241 54.3574C112.827 54.3574 114.243 54.4796 115.49 54.7374C116.737 54.9952 117.788 55.4294 118.642 56.0264C119.496 56.6302 120.147 57.4376 120.608 58.4553C121.062 59.4729 121.299 60.7213 121.299 62.1935L121.313 65.9386C121.313 67.2276 121.13 68.2928 120.757 69.1476C120.384 70.0025 119.821 70.6809 119.062 71.1965C118.31 71.7122 117.375 72.0717 116.263 72.2821C115.151 72.4924 113.837 72.6009 112.325 72.6077C114.135 72.6009 115.646 72.7163 116.859 72.9605C118.066 73.2048 119.056 73.7 119.815 74.4531C120.838 75.4708 121.353 77.0176 121.36 79.1005ZM104.442 69.8668C105.005 69.8668 105.486 69.8057 105.886 69.6904C106.279 69.575 106.591 69.3376 106.821 68.978C107.045 68.6184 107.208 68.096 107.296 67.4176C107.384 66.7391 107.431 65.83 107.425 64.697C107.425 63.1501 107.235 62.0782 106.875 61.4947C106.516 60.9113 105.825 60.6195 104.801 60.6263L96.5865 60.6602L96.6204 69.9007L104.442 69.8736V69.8668ZM103.764 85.9732C104.517 85.9732 105.14 85.946 105.635 85.9121C106.123 85.8714 106.509 85.6814 106.794 85.3422C107.079 85.003 107.262 84.4602 107.357 83.7275C107.445 82.988 107.492 81.9228 107.485 80.5252V79.1073C107.479 78.5374 107.458 78.0692 107.418 77.6893C107.377 77.3094 107.241 77.0109 107.018 76.7802C106.794 76.5563 106.448 76.3867 105.994 76.2713C105.54 76.1628 104.896 76.1085 104.069 76.1085L96.6475 76.1356L96.6814 86.0003L103.764 85.9732Z" fill="white"/>
<path d="M142.135 59.8521L142.216 81.3997C142.216 82.3088 142.27 83.0415 142.365 83.6114C142.46 84.1746 142.65 84.6223 142.935 84.9412C143.219 85.2601 143.606 85.484 144.1 85.6196C144.588 85.7486 145.212 85.8164 145.971 85.8096L150.106 85.7961C150.75 85.7961 151.305 85.7553 151.773 85.6739C152.248 85.5993 152.634 85.4093 152.932 85.104C153.23 84.7987 153.447 84.3577 153.576 83.7675C153.705 83.184 153.773 82.3767 153.766 81.359L153.684 59.8114C153.678 57.5047 153.142 55.639 152.078 54.2007L169.016 54.1328C167.966 55.6525 167.444 57.5251 167.451 59.7504L167.532 81.1283C167.546 84.3781 166.773 86.9969 165.214 88.9915C163.655 90.9794 161.228 91.9835 157.948 91.9971L137.607 92.0717C134.394 92.0853 131.975 91.0947 130.348 89.0933C128.714 87.0987 127.894 84.4866 127.881 81.2776L127.799 59.8996C127.792 57.6675 127.257 55.8018 126.193 54.2889L143.7 54.221C142.65 55.734 142.128 57.6133 142.135 59.8386" fill="white"/>
<path d="M190.354 75.7763L190.395 86.2651C190.401 88.4972 190.937 90.3629 192.001 91.8691L174.493 91.9369C175.544 90.424 176.066 88.5515 176.059 86.3194L175.957 59.7242C175.951 57.4921 175.415 55.6263 174.351 54.1134L205.455 53.998C207.001 53.998 208.404 54.1202 209.651 54.378C210.898 54.6358 211.955 55.07 212.83 55.667C213.704 56.2709 214.362 57.0782 214.823 58.0959C215.277 59.1136 215.507 60.3619 215.514 61.8341L215.548 69.9416C215.555 72.0991 215.161 73.5985 214.375 74.4533C213.589 75.3082 212.132 75.7356 210.017 75.7424L216.07 88.4226C216.49 89.291 217.175 90.4036 218.123 91.7605L201.524 91.8216L194.834 75.7424L190.361 75.7627L190.354 75.7763ZM198.372 69.5074C198.976 69.5074 199.47 69.4667 199.843 69.3853C200.223 69.3107 200.521 69.1546 200.745 68.9307C200.968 68.7068 201.117 68.3744 201.192 67.9402C201.267 67.506 201.3 66.9293 201.3 66.2101V64.3376C201.287 63.3539 201.239 62.5872 201.145 62.0445C201.05 61.4949 200.873 61.0946 200.629 60.83C200.385 60.5654 200.04 60.4094 199.606 60.3483C199.172 60.2941 198.616 60.2669 197.932 60.2669L190.286 60.2941L190.32 69.5346L198.366 69.5006L198.372 69.5074Z" fill="white"/>
<path d="M259.523 61.169C259.029 60.9044 258.568 60.694 258.134 60.5244C257.7 60.3548 257.253 60.2463 256.799 60.192C256.345 60.1377 255.843 60.1038 255.301 60.0834C254.752 60.0699 254.121 60.0563 253.403 60.0631L239.067 60.1174C238.234 60.1174 237.576 60.1988 237.088 60.3548C236.6 60.5109 236.221 60.7551 235.956 61.0943C235.692 61.4336 235.523 61.8881 235.455 62.458C235.38 63.0279 235.346 63.7267 235.346 64.5544L235.407 81.0543C235.407 81.8481 235.448 82.5265 235.529 83.0964C235.604 83.6663 235.767 84.1277 236.017 84.4873C236.261 84.8468 236.634 85.0979 237.129 85.2471C237.617 85.3964 238.302 85.471 239.169 85.4642L243.249 85.4507C244.612 85.4507 245.439 85.1318 245.737 84.5076C246.035 83.8834 246.184 82.9268 246.178 81.6445L246.15 75.1247L242.578 75.1382C240.837 75.145 239.332 75.4367 238.051 76.0066L238.024 69.1475L261.93 69.0593C260.879 70.4976 260.357 72.3702 260.364 74.6769L260.405 86.0206C260.411 88.3273 260.947 90.193 262.011 91.6313L249.492 91.6788C249.187 90.6611 248.95 89.2771 248.794 87.5403C248.719 88.4087 248.557 89.1211 248.292 89.6706C248.028 90.2202 247.642 90.6476 247.133 90.9529C246.625 91.2582 245.954 91.4617 245.127 91.5567C244.293 91.6517 243.277 91.706 242.07 91.7128L231.137 91.7535C229.592 91.7535 228.202 91.6449 226.975 91.4007C225.749 91.1632 224.698 90.7358 223.831 90.1387C222.956 89.5349 222.285 88.7276 221.811 87.7099C221.336 86.6922 221.092 85.4235 221.085 83.9106L221.004 61.7931C220.991 58.8826 221.845 56.8472 223.559 55.6871C225.274 54.5269 227.755 53.9435 231.002 53.9299L258.249 53.8281L259.523 61.1961V61.169Z" fill="white"/>
<path d="M281.253 69.1354L292.81 69.0947C295.04 69.0879 296.829 68.7962 298.191 68.2195L298.219 76.2184C297.31 75.54 295.873 75.2076 293.908 75.2143L281.274 75.2618L281.314 85.2961L295.311 85.2418C295.765 85.2418 296.172 85.2215 296.531 85.1808C296.89 85.1401 297.256 85.0654 297.636 84.9501C298.008 84.8348 298.435 84.6923 298.91 84.5227C299.384 84.3531 299.974 84.1495 300.692 83.9188L299.472 91.4632L265.427 91.5921C266.477 90.0792 266.999 88.1999 266.992 85.9745L266.891 59.3793C266.884 57.1472 266.348 55.2815 265.284 53.7686L298.537 53.6396L299.642 60.7837C298.429 60.1867 296.619 59.8882 294.199 59.895L281.226 59.9424L281.26 69.1287L281.253 69.1354Z" fill="white"/>
<path d="M319.237 75.289L319.278 85.7779C319.285 88.01 319.82 89.8757 320.884 91.3886L303.377 91.4565C304.427 89.9435 304.949 88.0642 304.942 85.8389L304.841 59.2437C304.834 57.0116 304.299 55.1459 303.234 53.6329L334.339 53.5176C335.884 53.5176 337.287 53.6397 338.534 53.8975C339.781 54.1553 340.839 54.5895 341.713 55.1866C342.581 55.7904 343.245 56.5977 343.706 57.6154C344.16 58.6331 344.397 59.8814 344.397 61.3537L344.424 69.4611C344.431 71.6186 344.038 73.118 343.252 73.9728C342.459 74.8277 341.008 75.2551 338.894 75.2619L344.946 87.9421C345.366 88.8105 346.051 89.9232 347 91.2801L330.401 91.3411L323.711 75.2619L319.237 75.2755V75.289ZM327.256 69.0201C327.859 69.0201 328.354 68.9794 328.726 68.898C329.106 68.8234 329.404 68.6674 329.628 68.4435C329.852 68.2196 330.001 67.8871 330.075 67.4529C330.15 67.0187 330.184 66.442 330.184 65.7229V63.8504C330.17 62.8666 330.123 62.1 330.028 61.5572C329.933 61.0077 329.757 60.6074 329.513 60.3428C329.269 60.0782 328.923 59.9221 328.489 59.8611C328.055 59.8068 327.5 59.7797 326.815 59.7797L319.169 59.8068L319.203 69.0473L327.249 69.0134L327.256 69.0201Z" fill="white"/>
<path d="M55.3353 92.3772L19.6287 92.5129C10.309 92.5468 2.73117 85.016 2.69728 75.6941C2.6905 73.116 4.77135 71.0128 7.347 70.9992L67.4611 70.7686C70.0368 70.7618 72.138 72.8446 72.1448 75.4227C72.1786 84.7514 64.655 92.3365 55.3421 92.3704" fill="white"/>
<path d="M64.9067 63.5569L9.84216 63.7672C5.87025 63.7808 2.63713 60.5717 2.62358 56.596C2.61002 52.6203 5.81602 49.3841 9.78794 49.3705L64.8525 49.1602C68.8244 49.1466 72.0575 52.3557 72.071 56.3314C72.0846 60.3071 68.8786 63.5433 64.9067 63.5569Z" fill="white"/>
<path d="M69.6163 41.9158L4.96087 42.16C3.63916 42.16 2.56147 41.0948 2.55469 39.7719C2.55469 38.4489 3.61883 37.3634 4.94054 37.3634L69.596 37.1191C70.9177 37.1191 71.9954 38.1843 72.0022 39.5073C72.0022 40.8303 70.938 41.909 69.6163 41.9158Z" fill="white"/>
<path d="M67.2037 30.0825L7.2861 30.3064C4.65623 30.3199 2.51438 28.1896 2.50083 25.5572L2.42627 6.1875L24.021 20.5638L37.15 6.05859L50.3671 20.4689L71.8738 5.92969L71.9483 25.2994C71.9619 27.9318 69.8336 30.0757 67.2037 30.0893" fill="white"/>
<path d="M0 2.65376L2.3723 0.265625L4.79205 2.63341L2.42653 4.94692L0 2.65376Z" fill="white"/>
<path d="M34.7441 2.51607L37.1232 0.12793L39.5362 2.49572L37.1707 4.80924L34.7441 2.51607Z" fill="white"/>
<path d="M69.4678 2.38813L71.8469 0L74.2598 2.36778L71.8943 4.6813L69.4678 2.38813Z" fill="white"/>
</svg>
