<svg width="33" height="33" viewBox="0 0 33 33" fill="none" xmlns="http://www.w3.org/2000/svg">
<g id="InstagramLogo">
<g clip-path="url(#clip0_380_1253)">
<path id="Vector" d="M16 21.5589C18.7614 21.5589 21 19.3556 21 16.6376C21 13.9196 18.7614 11.7163 16 11.7163C13.2386 11.7163 11 13.9196 11 16.6376C11 19.3556 13.2386 21.5589 16 21.5589Z" stroke="#C4181D" stroke-width="2" stroke-miterlimit="10"/>
<path id="Vector_2" d="M22 4.82666H10C6.68629 4.82666 4 7.47067 4 10.7322V22.5433C4 25.8049 6.68629 28.4489 10 28.4489H22C25.3137 28.4489 28 25.8049 28 22.5433V10.7322C28 7.47067 25.3137 4.82666 22 4.82666Z" stroke="#C4181D" stroke-width="2" stroke-linecap="round" stroke-linejoin="round"/>
<path id="Vector_3" d="M22.5 11.7164C23.3284 11.7164 24 11.0554 24 10.2401C24 9.42467 23.3284 8.76367 22.5 8.76367C21.6716 8.76367 21 9.42467 21 10.2401C21 11.0554 21.6716 11.7164 22.5 11.7164Z" fill="#C4181D"/>
</g>
</g>
<defs>
<clipPath id="clip0_380_1253">
<rect x="0.643066" y="0.889648" width="32.0216" height="31.4963" rx="10" fill="white"/>
</clipPath>
</defs>
</svg>
