<svg width="150" height="39" viewBox="0 0 150 39" fill="none" xmlns="http://www.w3.org/2000/svg">
<g id="Group">
<path id="Vector" d="M48.4161 21.001L46.9395 18.874L39.7546 18.8996C38.077 18.9053 36.8043 18.5304 35.9335 17.7751C35.0627 17.0197 34.6229 15.8554 34.6171 14.2879L34.5909 7.3788C34.588 6.45873 34.7278 5.70052 35.0161 5.10985C35.3044 4.51919 35.6801 4.04496 36.149 3.68715C36.615 3.32934 37.1596 3.08229 37.777 2.94314C38.3945 2.804 39.0323 2.733 39.6905 2.73016L51.2761 2.68756C52.9129 2.68188 54.1768 3.05673 55.068 3.8121C55.9592 4.56747 56.4078 5.73176 56.4136 7.29929L56.4398 14.2084C56.4427 15.0802 56.3058 15.8128 56.0291 16.4035C55.7525 16.9941 55.3855 17.474 54.9282 17.8375C54.471 18.2039 53.9264 18.4623 53.3002 18.6185C52.6711 18.7746 52.0187 18.8542 51.3402 18.857L49.9626 18.8627L51.4071 20.9896L48.4132 21.001H48.4161ZM48.0666 16.1536C48.4248 15.9747 48.6491 15.7106 48.7365 15.3641C48.8238 15.0177 48.8675 14.6002 48.8675 14.1146L48.8413 7.25385C48.8413 6.86765 48.8093 6.54676 48.7481 6.29686C48.6869 6.04697 48.5821 5.85387 48.4307 5.71472C48.2821 5.57841 48.0753 5.4847 47.8161 5.43926C47.5569 5.39099 47.2366 5.36827 46.8579 5.37111L44.1348 5.37963C43.7358 5.37963 43.4067 5.41087 43.1475 5.46766C42.8883 5.52446 42.6845 5.62385 42.5359 5.76016C42.3874 5.8993 42.2884 6.08956 42.2389 6.33094C42.1894 6.57232 42.1661 6.88753 42.169 7.27657L42.1981 14.3333C42.1981 14.7706 42.2447 15.1199 42.3379 15.3868C42.4282 15.6538 42.5651 15.8497 42.7456 15.9804C42.9262 16.1081 43.1388 16.1933 43.3893 16.2331C43.6397 16.2728 43.9222 16.2927 44.2426 16.2899C44.4406 16.2899 44.6212 16.2814 44.7814 16.2643C44.9416 16.2473 45.0493 16.2302 45.1105 16.216L43.5757 13.9414L46.5085 13.9301L48.0753 16.1536H48.0666Z" fill="black"/>
<path id="Vector_2" d="M67.4193 5.0249L67.4542 14.237C67.4542 14.626 67.4805 14.9413 67.5329 15.1826C67.5824 15.424 67.6843 15.6143 67.8358 15.7506C67.9872 15.8869 68.1911 15.9834 68.4503 16.0402C68.7095 16.097 69.0386 16.1226 69.4376 16.1226L71.6219 16.1141C71.9627 16.1141 72.2568 16.097 72.5044 16.0629C72.7548 16.0289 72.9587 15.9494 73.116 15.8187C73.2762 15.6881 73.3897 15.4978 73.4596 15.2479C73.5295 14.998 73.5616 14.6544 73.5616 14.2171L73.5266 5.00503C73.5237 4.01964 73.2412 3.21884 72.6791 2.60829L81.629 2.57422C81.0727 3.22168 80.796 4.02532 80.7989 4.97663L80.8339 14.1177C80.8397 15.5092 80.429 16.6281 79.6048 17.48C78.7806 18.3319 77.4992 18.7607 75.7634 18.7664L65.0166 18.8061C63.3215 18.8118 62.0401 18.3887 61.1809 17.5339C60.3188 16.6792 59.8849 15.566 59.882 14.1944L59.847 5.0533C59.8441 4.09915 59.5616 3.30119 58.9995 2.65657L68.2493 2.62249C67.6931 3.26995 67.4164 4.07359 67.4193 5.0249Z" fill="black"/>
<path id="Vector_3" d="M93.2668 9.12589L99.3742 9.10317C100.551 9.09749 101.5 8.97538 102.217 8.72833L102.228 12.1474C101.748 11.8577 100.988 11.7157 99.9508 11.7186L93.2756 11.7441L93.2931 16.035L100.688 16.0066C100.926 16.0066 101.142 15.998 101.331 15.981C101.521 15.964 101.716 15.9299 101.914 15.8816C102.112 15.8333 102.336 15.7709 102.587 15.697C102.837 15.6232 103.149 15.538 103.527 15.4386L102.881 18.6645L84.8908 18.7299C85.447 18.0824 85.7237 17.2816 85.7208 16.3274L85.6771 4.95716C85.6742 4.00301 85.3917 3.20505 84.8296 2.56043L102.4 2.49512L102.98 5.54783C102.339 5.29225 101.381 5.16446 100.105 5.17014L93.2494 5.1957L93.2639 9.12304L93.2668 9.12589Z" fill="black"/>
<path id="Vector_4" d="M113.709 9.04874L119.817 9.02602C120.993 9.02034 121.943 8.89824 122.659 8.65118L122.671 12.0702C122.19 11.7806 121.43 11.6386 120.393 11.6414L113.718 11.667L113.735 15.9578L121.13 15.9294C121.369 15.9294 121.584 15.9209 121.774 15.9038C121.963 15.8868 122.158 15.8527 122.356 15.8045C122.554 15.7562 122.778 15.6937 123.029 15.6199C123.279 15.546 123.591 15.4609 123.97 15.3615L123.323 18.5874L105.333 18.6527C105.889 18.0053 106.166 17.2044 106.16 16.2503L106.117 4.88002C106.114 3.92587 105.831 3.1279 105.269 2.48328L122.84 2.41797L123.419 5.47068C122.778 5.2151 121.82 5.08732 120.545 5.093L113.692 5.11855L113.706 9.0459L113.709 9.04874Z" fill="black"/>
<path id="Vector_5" d="M143.905 15.2399L143.865 4.74141C143.862 3.78726 143.579 2.9893 143.017 2.34468L147.986 2.32764C147.429 2.94386 147.153 3.74466 147.156 4.73005L147.208 18.4999L137.539 18.5368L129.466 5.42579L129.506 16.1657C129.509 17.1198 129.792 17.9178 130.354 18.5624L125.385 18.5823C125.942 17.9348 126.218 17.1312 126.212 16.1798L126.169 4.80956C126.166 3.85541 125.883 3.05745 125.321 2.41283L136.155 2.37307L143.9 15.2427L143.905 15.2399Z" fill="black"/>
<path id="Vector_6" d="M52.1472 33.3843L52.156 35.5681C52.1618 36.7863 51.7948 37.6383 51.058 38.1238C50.3211 38.6094 49.2552 38.8537 47.8602 38.8593L34.7164 38.9076C35.1679 38.2744 35.3921 37.4906 35.3892 36.5563L35.3455 25.4246C35.3426 24.4903 35.1125 23.7094 34.6553 23.0761L47.799 23.0278C48.4805 23.0278 49.0892 23.079 49.6251 23.1869C50.161 23.2948 50.6124 23.4765 50.9794 23.7264C51.3463 23.9791 51.6259 24.3171 51.824 24.743C52.0191 25.169 52.121 25.6915 52.121 26.3077L52.1268 27.8753C52.1268 28.4148 52.0482 28.8606 51.888 29.2185C51.7278 29.5763 51.4861 29.8602 51.1599 30.076C50.8366 30.2919 50.4347 30.4424 49.9571 30.5304C49.4795 30.6184 48.9144 30.6639 48.265 30.6667C49.0426 30.6639 49.6921 30.7121 50.2134 30.8144C50.7318 30.9166 51.157 31.1239 51.4832 31.4391C51.923 31.8651 52.1443 32.5125 52.1472 33.3843ZM44.8778 29.5195C45.1196 29.5195 45.3264 29.4939 45.4982 29.4456C45.6671 29.3974 45.8011 29.298 45.9001 29.1475C45.9962 28.997 46.0661 28.7783 46.104 28.4943C46.1418 28.2103 46.1622 27.8298 46.1593 27.3556C46.1593 26.7081 46.0778 26.2595 45.9234 26.0152C45.769 25.771 45.472 25.6489 45.0322 25.6517L41.5024 25.6659L41.5169 29.5337L44.8778 29.5223V29.5195ZM44.5866 36.261C44.9099 36.261 45.1778 36.2496 45.3904 36.2354C45.6001 36.2184 45.7661 36.1389 45.8885 35.9969C46.0108 35.8549 46.0894 35.6277 46.1302 35.321C46.168 35.0115 46.1884 34.5657 46.1855 33.9807V33.3872C46.1826 33.1486 46.1739 32.9527 46.1564 32.7937C46.1389 32.6346 46.0807 32.5097 45.9846 32.4131C45.8884 32.3194 45.7399 32.2484 45.5448 32.2002C45.3497 32.1547 45.073 32.132 44.7177 32.132L41.5286 32.1434L41.5431 36.2723L44.5866 36.261Z" fill="black"/>
<path id="Vector_7" d="M61.0731 25.3289L61.1081 34.3479C61.1081 34.7285 61.1314 35.0352 61.1722 35.2737C61.2129 35.5094 61.2945 35.6968 61.4168 35.8303C61.5391 35.9637 61.7051 36.0575 61.9177 36.1143C62.1274 36.1682 62.3954 36.1966 62.7216 36.1938L64.4981 36.1881C64.7748 36.1881 65.0136 36.171 65.2146 36.137C65.4185 36.1057 65.5845 36.0262 65.7126 35.8984C65.8408 35.7706 65.934 35.5861 65.9893 35.339C66.0446 35.0948 66.0737 34.7569 66.0708 34.3309L66.0359 25.3119C66.033 24.3464 65.8029 23.5655 65.3456 22.9635L72.6238 22.9351C72.1723 23.5712 71.9481 24.3549 71.951 25.2864L71.986 34.2344C71.9918 35.5946 71.6598 36.6907 70.9899 37.5256C70.3201 38.3576 69.2774 38.7779 67.8678 38.7836L59.1276 38.8148C57.7472 38.8205 56.7074 38.4059 56.0085 37.5682C55.3066 36.7333 54.9542 35.64 54.9483 34.2968L54.9134 25.3488C54.9105 24.4146 54.6804 23.6336 54.2231 23.0004L61.7459 22.972C61.2945 23.6052 61.0702 24.3918 61.0731 25.3233" fill="black"/>
<path id="Vector_8" d="M81.7922 31.9935L81.8097 36.3837C81.8126 37.318 82.0427 38.0989 82.4999 38.7293L74.9772 38.7577C75.4286 38.1245 75.6529 37.3407 75.6499 36.4064L75.6063 25.2747C75.6033 24.3404 75.3733 23.5595 74.916 22.9262L88.2811 22.8779C88.9451 22.8779 89.548 22.929 90.0839 23.037C90.6197 23.1449 91.0741 23.3266 91.4498 23.5765C91.8255 23.8292 92.108 24.1672 92.306 24.5931C92.5012 25.0191 92.6002 25.5416 92.6031 26.1578L92.6177 29.5513C92.6206 30.4543 92.4516 31.0819 92.1138 31.4397C91.776 31.7975 91.1498 31.9764 90.2411 31.9793L92.8419 37.2867C93.0225 37.6502 93.3166 38.1159 93.7244 38.6839L86.5919 38.7094L83.7173 31.9793L81.7951 31.9878L81.7922 31.9935ZM85.2376 29.3696C85.4968 29.3696 85.7094 29.3525 85.8696 29.3184C86.0327 29.2872 86.1608 29.2219 86.257 29.1282C86.3531 29.0345 86.4171 28.8953 86.4492 28.7136C86.4812 28.5318 86.4958 28.2905 86.4958 27.9894V27.2057C86.4899 26.7939 86.4696 26.473 86.4288 26.2459C86.388 26.0158 86.3123 25.8483 86.2074 25.7375C86.1026 25.6268 85.9541 25.5615 85.7677 25.5359C85.5813 25.5132 85.3424 25.5018 85.0483 25.5018L81.7631 25.5132L81.7777 29.3809L85.2347 29.3667L85.2376 29.3696Z" fill="black"/>
<path id="Vector_9" d="M111.513 25.8797C111.301 25.769 111.103 25.6809 110.916 25.61C110.73 25.539 110.538 25.4935 110.342 25.4708C110.147 25.4481 109.932 25.4339 109.699 25.4254C109.463 25.4197 109.192 25.414 108.883 25.4168L102.724 25.4396C102.365 25.4396 102.083 25.4736 101.873 25.539C101.663 25.6043 101.5 25.7065 101.387 25.8485C101.273 25.9905 101.2 26.1807 101.171 26.4193C101.139 26.6578 101.125 26.9503 101.125 27.2967L101.151 34.203C101.151 34.5352 101.168 34.8192 101.203 35.0577C101.235 35.2963 101.305 35.4894 101.413 35.6399C101.518 35.7904 101.678 35.8954 101.891 35.9579C102.1 36.0204 102.394 36.0516 102.767 36.0488L104.521 36.0431C105.106 36.0431 105.461 35.9096 105.589 35.6484C105.718 35.3871 105.782 34.9867 105.779 34.45L105.767 31.721L104.232 31.7267C103.484 31.7296 102.837 31.8517 102.287 32.0902L102.275 29.2192L112.547 29.1823C112.096 29.7844 111.871 30.5681 111.874 31.5336L111.892 36.2817C111.895 37.2472 112.125 38.0281 112.582 38.6301L107.203 38.65C107.072 38.224 106.97 37.6447 106.903 36.9178C106.871 37.2812 106.801 37.5794 106.687 37.8094C106.574 38.0395 106.408 38.2184 106.189 38.3461C105.971 38.4739 105.683 38.5591 105.327 38.5989C104.969 38.6386 104.532 38.6614 104.014 38.6642L99.316 38.6812C98.652 38.6812 98.055 38.6358 97.5278 38.5336C97.0007 38.4342 96.5493 38.2553 96.1765 38.0054C95.8008 37.7526 95.5124 37.4147 95.3086 36.9887C95.1047 36.5628 94.9998 36.0318 94.9969 35.3985L94.962 26.141C94.9562 24.9227 95.3231 24.0708 96.06 23.5852C96.7968 23.0996 97.8627 22.8554 99.2578 22.8497L110.966 22.8071L111.513 25.8911V25.8797Z" fill="black"/>
<path id="Vector_10" d="M120.851 29.2135L125.817 29.1964C126.775 29.1936 127.544 29.0715 128.129 28.8301L128.141 32.1782C127.75 31.8942 127.133 31.7551 126.288 31.7579L120.86 31.7778L120.877 35.9777L126.891 35.955C127.086 35.955 127.261 35.9465 127.415 35.9295C127.57 35.9124 127.727 35.8812 127.89 35.8329C128.05 35.7846 128.234 35.725 128.438 35.654C128.642 35.583 128.895 35.4978 129.204 35.4013L128.679 38.559L114.05 38.613C114.502 37.9797 114.726 37.1931 114.723 36.2617L114.679 25.13C114.677 24.1957 114.447 23.4148 113.989 22.7815L128.278 22.7275L128.752 25.7178C128.231 25.4679 127.453 25.3429 126.414 25.3458L120.839 25.3657L120.854 29.2107L120.851 29.2135Z" fill="black"/>
<path id="Vector_11" d="M137.171 31.7899L137.189 36.1802C137.192 37.1144 137.422 37.8954 137.879 38.5286L130.356 38.557C130.808 37.9238 131.032 37.1372 131.029 36.2057L130.985 25.074C130.982 24.1397 130.752 23.3588 130.295 22.7255L143.66 22.6772C144.324 22.6772 144.927 22.7284 145.463 22.8363C145.999 22.9442 146.453 23.1259 146.829 23.3758C147.201 23.6286 147.487 23.9665 147.685 24.3924C147.88 24.8184 147.982 25.3409 147.982 25.9571L147.994 29.3506C147.997 30.2536 147.828 30.8812 147.49 31.239C147.149 31.5968 146.526 31.7758 145.617 31.7786L148.218 37.086C148.398 37.4495 148.693 37.9152 149.1 38.4832L141.968 38.5087L139.093 31.7786L137.171 31.7843V31.7899ZM140.617 29.166C140.876 29.166 141.088 29.149 141.249 29.1149C141.412 29.0837 141.54 29.0184 141.636 28.9247C141.732 28.8309 141.796 28.6918 141.828 28.5101C141.86 28.3283 141.875 28.0869 141.875 27.7859V27.0022C141.869 26.5904 141.848 26.2695 141.808 26.0423C141.767 25.8123 141.691 25.6448 141.586 25.534C141.482 25.4233 141.333 25.358 141.147 25.3324C140.96 25.3097 140.721 25.2983 140.427 25.2983L137.142 25.3097L137.157 29.1774L140.614 29.1632L140.617 29.166Z" fill="black"/>
<g id="Group 5652">
<path id="Vector_12" d="M23.777 38.9425L8.43439 38.9993C4.42983 39.0135 1.17375 35.8614 1.15919 31.9596C1.15627 30.8805 2.05039 30.0002 3.1571 29.9945L28.9873 29.898C30.094 29.8951 30.9969 30.7669 30.9998 31.846C31.0143 35.7506 27.7816 38.9255 23.7799 38.9397" fill="#FBB81B"/>
<path id="Vector_13" d="M27.8896 26.879L4.22918 26.967C2.52251 26.9727 1.13328 25.6295 1.12746 23.9654C1.12163 22.3013 2.49921 20.9468 4.20588 20.9411L27.8663 20.853C29.573 20.8474 30.9622 22.1906 30.968 23.8546C30.9739 25.5187 29.5963 26.8733 27.8896 26.879Z" fill="#C4181D"/>
<path id="Vector_14" d="M29.9136 17.8207L2.13205 17.9229C1.56413 17.9229 1.10106 17.4771 1.09814 16.9233C1.09814 16.3696 1.55539 15.9152 2.12331 15.9152L29.9048 15.813C30.4727 15.813 30.9358 16.2588 30.9387 16.8126C30.9387 17.3663 30.4815 17.8178 29.9136 17.8207Z" fill="#C4181D"/>
<path id="Vector_15" d="M28.8759 12.8677L3.13019 12.9615C2.00018 12.9671 1.07985 12.0755 1.07403 10.9736L1.04199 2.86621L10.3209 8.8836L15.9623 2.81226L21.6415 8.84385L30.8826 2.7583L30.9146 10.8657C30.9204 11.9675 30.0059 12.8649 28.8759 12.8706" fill="#FBB81B"/>
<path id="Vector_16" d="M0 1.38679L1.01934 0.387207L2.05907 1.37827L1.04264 2.34662L0 1.38679Z" fill="#FBB81B"/>
<path id="Vector_17" d="M14.9297 1.32966L15.9519 0.330078L16.9888 1.32115L15.9723 2.2895L14.9297 1.32966Z" fill="#FBB81B"/>
<path id="Vector_18" d="M29.8491 1.27644L30.8714 0.276855L31.9082 1.26792L30.8918 2.23627L29.8491 1.27644Z" fill="#FBB81B"/>
</g>
</g>
</svg>
