<svg width="26" height="26" viewBox="0 0 26 26" fill="none" xmlns="http://www.w3.org/2000/svg">
<g id="phone-call 1" clip-path="url(#clip0_380_1250)">
<path id="Vector" d="M24.0097 17.1228C23.9441 17.0708 19.1817 13.638 17.8745 13.8844C17.2505 13.9948 16.8937 14.4204 16.1777 15.2724C16.0625 15.41 15.7857 15.7396 15.5705 15.974C15.1181 15.8264 14.6767 15.6467 14.2497 15.4364C12.0462 14.3636 10.2657 12.5832 9.19294 10.3796C8.98243 9.95271 8.80277 9.51131 8.65534 9.05877C8.89054 8.84277 9.22014 8.56597 9.36094 8.44757C10.2089 7.73557 10.6353 7.37877 10.7457 6.75317C10.9721 5.45717 7.54174 0.661973 7.50574 0.618773C7.3501 0.39643 7.14698 0.211463 6.91108 0.0772559C6.67518 -0.0569516 6.41239 -0.137044 6.14174 -0.157227C4.75134 -0.157227 0.781738 4.99237 0.781738 5.85957C0.781738 5.90997 0.854538 11.0332 7.17214 17.4596C13.5921 23.77 18.7145 23.8428 18.7649 23.8428C19.6329 23.8428 24.7817 19.8732 24.7817 18.4828C24.7618 18.2131 24.6822 17.9512 24.5487 17.716C24.4152 17.4808 24.2311 17.2782 24.0097 17.1228Z" fill="#C4181D"/>
</g>
<defs>
<clipPath id="clip0_380_1250">
<rect width="25.0169" height="24.6065" fill="white" transform="translate(0.746582 0.842773)"/>
</clipPath>
</defs>
</svg>
