<svg width="66" height="32" viewBox="0 0 66 32" fill="none" xmlns="http://www.w3.org/2000/svg">
<path fill-rule="evenodd" clip-rule="evenodd" d="M31.7133 32H36.5126L39.0266 26.7136C40.4868 28.1072 42.2475 29.298 44.3089 30.286C46.7556 31.4287 49.516 32 52.5901 32H52.8253C56.7464 31.9399 59.9146 31.0227 62.3299 29.2486C64.7766 27.4444 66 25.0237 66 21.9866C66 20.3328 65.6863 18.8894 65.059 17.6565C64.4316 16.3936 63.5376 15.3862 62.377 14.6345C61.2163 13.8827 59.9302 13.2964 58.5187 12.8754C57.1385 12.4243 55.5544 12.1086 53.7664 11.9282L51.649 11.7478C50.9276 11.6575 50.3786 11.5824 50.0022 11.5222C49.6258 11.4621 49.1553 11.3568 48.5906 11.2065C48.026 11.0561 47.7619 10.9237 47.4796 10.6531C47.2811 10.4152 47.2664 9.58307 47.5064 8.88204C47.5698 8.69687 47.651 8.52085 47.7512 8.36735C47.771 8.33695 47.7905 8.30674 47.8099 8.27677L47.8102 8.27629C48.2579 7.58207 48.6257 7.01171 51.602 7.01171H51.9313C52.841 7.01171 54.0644 7.2673 55.6014 7.77849C57.1698 8.28969 58.5814 8.90613 59.8361 9.62781L65.059 5.02708C60.7615 1.53894 56.3856 0 51.9313 0H51.7303L51.4461 0.00293676L41.0296 0.110573L34.2071 17.6565L27.3374 0.110573H22.5851L15.7155 17.6565L8.89289 0.110573H0L13.4099 32H18.2093L24.9377 15.6268L31.7133 32ZM52.8253 24.7832H52.5901C49.0928 24.7832 44.6861 22.4228 42.1465 20.1531L43.6505 16.9903C45.5568 17.9342 47.8465 18.5472 50.5198 18.8293L52.6842 19.0548C53.5311 19.145 54.1899 19.2352 54.6604 19.3254C55.1309 19.4156 55.6642 19.566 56.2602 19.7765C56.8875 19.987 57.3267 20.2726 57.5776 20.6335C57.8599 20.9943 58.0011 21.4454 58.0011 21.9866C58.0011 23.7909 56.2758 24.723 52.8253 24.7832Z" fill="white"/>
</svg>
